<?xml version="1.0" encoding="UTF-8"?>
<svg width="446px" height="47px" viewBox="0 0 446 47" version="1.1" xmlns="http://www.w3.org/2000/svg" xmlns:xlink="http://www.w3.org/1999/xlink">
    <!-- Generator: Sketch 42 (36781) - http://www.bohemiancoding.com/sketch -->
    <title>Group 2</title>
    <desc>Created with Sketch.</desc>
    <defs></defs>
    <g id="Page-1" stroke="none" stroke-width="1" fill="none" fill-rule="evenodd">
        <g id="Group-2">
            <path d="M19.4094374,23.8083333 C22.2279836,23.8083333 24.4699754,23.1375067 26.13548,21.7958333 C27.8009846,20.45416 28.6337244,18.6333448 28.6337244,16.3333333 L28.6337244,16.2055556 C28.6337244,13.7777656 27.8223369,11.9356544 26.1995376,10.6791667 C24.5767382,9.4226789 22.2920418,8.79444444 19.3453798,8.79444444 L7.87907853,8.79444444 L7.87907853,23.8083333 L19.4094374,23.8083333 Z M0,1.63888889 L19.9859553,1.63888889 C22.8045015,1.63888889 25.302721,2.03286643 27.4806885,2.82083333 C29.6586561,3.60880024 31.4736018,4.70554853 32.9255802,6.11111111 C34.1213271,7.34630247 35.0394761,8.77314006 35.6800548,10.3916667 C36.3206335,12.0101933 36.640918,13.7990643 36.640918,15.7583333 L36.640918,15.8861111 C36.640918,17.7176018 36.3740143,19.3680482 35.8401987,20.8375 C35.3063831,22.3069518 34.5697287,23.6060129 33.6302132,24.7347222 C32.6906978,25.8634316 31.5697019,26.8217553 30.2671919,27.6097222 C28.9646819,28.3976891 27.5234015,29.0046275 25.9433074,29.4305556 L38.0501841,46.3611111 L28.7618395,46.3611111 L17.7439411,30.7722222 L7.87907853,30.7722222 L7.87907853,46.3611111 L0,46.3611111 L0,1.63888889 Z M79.3432817,1.63888889 L112.58915,1.63888889 L112.58915,8.66666667 L87.2223602,8.66666667 L87.2223602,20.2944444 L109.70656,20.2944444 L109.70656,27.3222222 L87.2223602,27.3222222 L87.2223602,39.3333333 L112.909437,39.3333333 L112.909437,46.3611111 L79.3432817,46.3611111 L79.3432817,1.63888889 Z M170.985613,47 C167.526488,47 164.216881,46.4143577 161.056693,45.2430556 C157.896504,44.0717534 154.971239,42.2722344 152.280808,39.8444444 L157.021067,34.2222222 C159.199035,36.0963057 161.398322,37.5337913 163.618995,38.5347222 C165.839667,39.5356532 168.359239,40.0361111 171.177785,40.0361111 C173.611984,40.0361111 175.544368,39.5250051 176.974994,38.5027778 C178.405619,37.4805504 179.120921,36.1176011 179.120921,34.4138889 L179.120921,34.2861111 C179.120921,33.4768478 178.982132,32.763429 178.704547,32.1458333 C178.426963,31.5282377 177.914508,30.9425954 177.167166,30.3888889 C176.419824,29.8351824 175.394914,29.3240764 174.092404,28.8555556 C172.789894,28.3870347 171.092386,27.9185209 168.999829,27.45 C166.608335,26.8962935 164.483781,26.2680591 162.626103,25.5652778 C160.768424,24.8624965 159.209706,24.0106532 157.949902,23.0097222 C156.690097,22.0087913 155.729243,20.7842665 155.067312,19.3361111 C154.40538,17.8879557 154.07442,16.1416769 154.07442,14.0972222 L154.07442,13.9694444 C154.07442,12.0527682 154.458761,10.2958413 155.227456,8.69861111 C155.99615,7.1013809 157.053089,5.73843157 158.398304,4.60972222 C159.74352,3.48101288 161.355618,2.59722542 163.234649,1.95833333 C165.11368,1.31944125 167.163501,1 169.384174,1 C172.672478,1 175.629772,1.47916188 178.256145,2.4375 C180.882517,3.39583812 183.348708,4.79073158 185.654791,6.62222222 L181.426993,12.5638889 C179.377141,11.0731407 177.348673,9.93380024 175.341526,9.14583333 C173.33438,8.35786643 171.305911,7.96388889 169.256059,7.96388889 C166.949976,7.96388889 165.156382,8.47499489 163.875225,9.49722222 C162.594067,10.5194496 161.953498,11.7759185 161.953498,13.2666667 L161.953498,13.3944444 C161.953498,14.2463006 162.102964,15.0023115 162.401901,15.6625 C162.700838,16.3226885 163.245322,16.9189788 164.035369,17.4513889 C164.825416,17.983799 165.914383,18.4842569 167.302304,18.9527778 C168.690224,19.4212986 170.451789,19.9111086 172.587051,20.4222222 C174.93584,21.0185215 177.01769,21.6787001 178.832662,22.4027778 C180.647635,23.1268555 182.152973,24.0106429 183.34872,25.0541667 C184.544467,26.0976904 185.451939,27.3115672 186.071166,28.6958333 C186.690392,30.0800995 187,31.6879538 187,33.5194444 L187,33.6472222 C187,35.7342697 186.604982,37.608325 185.814935,39.2694444 C185.024888,40.9305639 183.925245,42.3361054 182.515972,43.4861111 C181.106698,44.6361169 179.419867,45.5092563 177.455425,46.1055556 C175.490984,46.7018548 173.334401,47 170.985613,47 Z" id="RES" fill="#000000"></path>
            <path d="M264.431443,23.0190996 C267.253185,23.0190996 269.497718,22.3458458 271.165111,20.9993179 C272.832504,19.65279 273.666188,17.8253867 273.666188,15.5170532 L273.666188,15.3888131 C273.666188,12.9522388 272.853881,11.1034624 271.229241,9.84242838 C269.604602,8.58139433 267.317316,7.95088677 264.367313,7.95088677 L252.888011,7.95088677 L252.888011,23.0190996 L264.431443,23.0190996 Z M245,0.769440655 L265.008615,0.769440655 C267.830356,0.769440655 270.331408,1.1648437 272.511845,1.95566166 C274.692282,2.74647962 276.509285,3.84719622 277.96291,5.25784447 C279.160012,6.49750506 280.079202,7.92950529 280.720507,9.55388813 C281.361812,11.178271 281.68246,12.9736145 281.68246,14.9399727 L281.68246,15.0682128 C281.68246,16.9063302 281.415254,18.5627484 280.880833,20.0375171 C280.346412,21.5122857 279.608922,22.8160471 278.668342,23.9488404 C277.727761,25.0816337 276.605494,26.0434249 275.301508,26.8342428 C273.997521,27.6250608 272.554606,28.2341952 270.972721,28.6616644 L283.093324,45.6534789 L273.794448,45.6534789 L262.764058,30.0081855 L252.888011,30.0081855 L252.888011,45.6534789 L245,45.6534789 L245,0.769440655 Z M324.433238,0.769440655 L357.716798,0.769440655 L357.716798,7.82264666 L332.321249,7.82264666 L332.321249,19.4924966 L354.83094,19.4924966 L354.83094,26.5457026 L332.321249,26.5457026 L332.321249,38.6002729 L358.037449,38.6002729 L358.037449,45.6534789 L324.433238,45.6534789 L324.433238,0.769440655 Z M422.015315,39.1773533 C423.511693,39.1773533 424.901166,38.9849951 426.183776,38.6002729 C427.466386,38.2155506 428.642094,37.6812222 429.710936,36.9972715 L422.015315,30.4570259 L427.081598,24.686221 L434.84135,31.739427 C436.380481,29.3883466 437.150036,26.5884655 437.150036,23.3396999 L437.150036,23.2114598 C437.150036,21.031367 436.775947,18.9688592 436.027758,17.0238745 C435.279569,15.0788898 434.23212,13.3904119 432.885379,11.9583902 C431.538639,10.5263685 429.924712,9.38290559 428.043551,8.52796726 C426.16239,7.67302892 424.110245,7.24556617 421.887054,7.24556617 C419.663864,7.24556617 417.622407,7.66234235 415.762623,8.49590723 C413.902838,9.32947211 412.310288,10.4622484 410.984925,11.8942701 C409.659561,13.3262918 408.6228,15.0040832 407.874611,16.9276944 C407.126422,18.8513057 406.752333,20.9031269 406.752333,23.0832196 L406.752333,23.2114598 C406.752333,25.3915525 407.126422,27.4540603 407.874611,29.399045 C408.6228,31.3440297 409.670249,33.0325076 411.01699,34.4645293 C412.36373,35.896551 413.977657,37.0400139 415.858818,37.8949523 C417.739979,38.7498906 419.792124,39.1773533 422.015315,39.1773533 Z M435.546782,42.1909959 C433.622867,43.5588972 431.527969,44.606181 429.262024,45.3328786 C426.99608,46.0595762 424.537781,46.4229195 421.887054,46.4229195 C418.424008,46.4229195 415.260284,45.8137851 412.395788,44.595498 C409.531293,43.3772108 407.072994,41.7207926 405.020818,39.6261937 C402.968643,37.5315948 401.365404,35.0843705 400.211055,32.2844475 C399.056706,29.4845244 398.479541,26.5029717 398.479541,23.3396999 L398.479541,23.2114598 C398.479541,20.0481879 399.056706,17.0666352 400.211055,14.2667121 C401.365404,11.4667891 402.990019,9.00887825 405.084949,6.89290587 C407.179878,4.77693349 409.659553,3.09914217 412.524049,1.85948158 C415.388544,0.619820996 418.552268,0 422.015315,0 C425.478361,0 428.642085,0.609134427 431.506581,1.82742156 C434.371076,3.04570868 436.829375,4.70212686 438.881551,6.79672578 C440.933726,8.89132471 442.536965,11.338549 443.691314,14.138472 C444.845663,16.9383951 445.422828,19.9199478 445.422828,23.0832196 L445.422828,23.2114598 C445.422828,25.7762748 445.038051,28.223499 444.268485,30.553206 C443.498919,32.882913 442.365964,35.0309133 440.869586,36.9972715 L446,41.3574352 L440.933716,47 L435.546782,42.1909959 Z" id="REQ" fill="#FF5252"></path>
            <rect id="Rectangle-2" fill="#000000" x="210" y="37" width="10" height="10"></rect>
        </g>
    </g>
</svg>